<svg width="62" height="50" fill="none" xmlns="http://www.w3.org/2000/svg"><path d="M35.898 17.249c-.762.193-1.475-.162-1.942-.753-.336-.424-.478-.918-.515-1.438-.015-.2-.007-.4.001-.6.004-.092.008-.184.009-.276a2.343 2.343 0 011.127-1.669c.61-.376 1.262-.405 1.924-.144.383.15.694.421.981.713.343.346.566.767.784 1.187.226.437.25.906.01 1.326-.162.283-.413.524-.655.753-.483.455-1.08.737-1.724.901zM44.642 26.238c2.911.264 5.795 1.884 6.176 2.423l.373.676c.997 1.512-.081 3.332-1.387 2.078a.98.98 0 00-.07-.06c-.02-.015-.041-.032-.061-.05-.718-.006-1.498-.047-2.31-.09-2.903-.15-6.215-.324-8.53.98-.92.52-1.586 1.261-2.227 1.973-.371.414-.734.818-1.133 1.162a54.384 54.384 0 01-.442.858c-.145.277-.275.526-.327.652l-.001.002c-.13.308-.397.946-1.065 1.35-.458.279-.987.43-1.528.44a4.443 4.443 0 01-.68-.03 2.673 2.673 0 01-.363-.075c-.07-.02-.14-.043-.277-.09a7.05 7.05 0 01-1.02-.294l-.001-.001c-.41-.142-.825-.274-1.238-.406a63.974 63.974 0 01-2.348-.815l-.003.007a41.24 41.24 0 01-2.04-.764c-.417-.166-.834-.33-1.254-.487-.35-.13-.678-.25-1.01-.43-.14-.053-.21-.08-.278-.11a2.8 2.8 0 01-.34-.177c-.216-.132-.4-.28-.563-.415a3.133 3.133 0 01-.94-1.323c-.274-.742-.074-1.406.023-1.725.04-.135.1-.425.166-.744l.022-.107.01-.05c.056-.264.111-.527.163-.756-.096-.522-.125-1.066-.155-1.624-.052-.96-.105-1.958-.506-2.95-1.008-2.494-3.772-4.496-6.194-6.25a57.775 57.775 0 01-1.908-1.421h-.081c-.032-.001-.063-.002-.094 0-1.858.121-2.322-2.265-.546-2.783 2.49-.727 5.527.459 8.029 2.133 2.304 1.255 3.976 3.035 5.51 5.103.134.122.236.22.283.276.266.321 1.01 1.017 1.625 1.593.454.425.838.784.91.88a85.313 85.313 0 002.505-3.365l.078-.142c.15-.264.301-.526.472-.776.188-.274.394-.536.6-.798l.158-.2c.16-.204.35-.37.563-.495a1.73 1.73 0 011.384-.145l.003-.01a.32.32 0 01.048.02.36.36 0 00.04.017c.013.005.028.009.042.012.017.005.034.009.051.016l-.004.01c.428.178.772.52.933.975.082.229.118.476.109.735l-.008.253c-.01.332-.022.664-.053.994-.03.3-.082.598-.136.896l-.03.16c-.043.401-.21 2.799-.246 4.174.113-.03.626-.069 1.23-.115.82-.063 1.808-.138 2.207-.22.07-.015.207-.028.383-.038 2.438-.646 4.8-.983 7.3-.517zM6.719 14.17c.503.179.904.501 1.244.899.172.201.279.442.26.717a9.894 9.894 0 00-.01.174c-.009.162-.017.323-.048.48-.071.37-.3.643-.617.835-.33.2-.695.303-1.082.301-.454-.001-.844-.163-1.13-.524a6.436 6.436 0 01-.427-.613c-.038-.06-.054-.133-.07-.206a1.572 1.572 0 00-.044-.165l-.015-.053.03-.182.004-.028.023-.036a1.02 1.02 0 00.05-.08c.044-.082.086-.165.128-.249.092-.183.184-.367.296-.537.128-.195.29-.375.466-.528.268-.233.582-.334.942-.206zM56.378 33.998c.015-.29-.161-.513-.333-.732a2.599 2.599 0 00-.994-.818c-.365-.168-.752-.237-1.099.016-.425.31-.805.654-.917 1.175a3.368 3.368 0 00-.097.81c.012.34.2.622.485.865.454.388.96.538 1.52.386.718-.195 1.148-.669 1.368-1.32.007-.023.026-.042.045-.061a.406.406 0 00.026-.027l.021-.142.011-.076-.014-.023c-.011-.018-.023-.036-.022-.053z" fill="#fff"/></svg>