<svg width="62" height="50" fill="none" xmlns="http://www.w3.org/2000/svg"><path d="M35.928 17.254c-.762.194-1.475-.161-1.942-.753-.336-.425-.478-.918-.515-1.438-.015-.2-.007-.4 0-.601.005-.092.008-.184.01-.276a2.344 2.344 0 011.127-1.669c.61-.376 1.262-.405 1.925-.144.383.15.694.421.981.713.343.346.566.767.784 1.188.226.437.25.906.01 1.326-.162.283-.413.524-.655.753-.483.455-1.08.737-1.725.901zM44.675 26.247c2.912.263 5.797 1.884 6.178 2.423l.374.676c.997 1.512-.082 3.333-1.388 2.079l-.07-.06a1.174 1.174 0 01-.061-.05 54.915 54.915 0 01-2.31-.09c-2.905-.151-6.218-.324-8.533.98-.92.52-1.587 1.261-2.228 1.974-.372.414-.735.818-1.133 1.162a54.395 54.395 0 01-.443.859c-.145.277-.275.526-.327.652l-.001.002c-.13.308-.397.946-1.065 1.35a3.05 3.05 0 01-1.53.44 4.456 4.456 0 01-.68-.03 2.689 2.689 0 01-.362-.075c-.07-.02-.14-.043-.277-.09a7.052 7.052 0 01-1.02-.295h-.002c-.41-.142-.824-.274-1.238-.407a64.018 64.018 0 01-2.348-.815l-.003.008a41.29 41.29 0 01-2.041-.765c-.417-.165-.834-.33-1.255-.486a7.51 7.51 0 01-1.01-.431c-.14-.053-.21-.08-.278-.11a2.823 2.823 0 01-.34-.177 4.64 4.64 0 01-.563-.416 3.134 3.134 0 01-.94-1.322c-.274-.743-.074-1.407.022-1.726.04-.135.1-.426.166-.744l.022-.107.011-.051c.055-.264.111-.527.163-.755-.096-.523-.126-1.067-.156-1.625-.051-.96-.105-1.959-.506-2.951-1.008-2.495-3.772-4.497-6.196-6.253-.678-.491-1.33-.963-1.908-1.42l-.081-.001c-.032 0-.063-.002-.094 0-1.859.122-2.323-2.265-.547-2.784 2.492-.727 5.53.46 8.032 2.135 2.305 1.254 3.977 3.035 5.512 5.104.134.122.236.22.283.276.266.321 1.01 1.017 1.625 1.593.454.425.839.785.91.88.862-1.078 2.28-3.029 2.506-3.365l.078-.142c.15-.264.302-.527.473-.777.188-.273.394-.536.6-.797l.158-.2c.16-.205.35-.372.563-.496a1.732 1.732 0 011.384-.146l.004-.009c.017.005.032.012.048.02a.36.36 0 00.081.03.326.326 0 01.052.015l-.004.01c.427.178.772.52.933.975.082.229.118.477.109.735l-.008.254c-.01.332-.022.664-.054.994-.029.3-.081.598-.135.896l-.03.16c-.044.402-.21 2.8-.247 4.175.114-.03.627-.069 1.232-.115.819-.062 1.807-.138 2.206-.22.07-.015.208-.027.384-.037 2.44-.647 4.8-.984 7.303-.517zM6.74 14.174c.504.18.905.502 1.245.9.172.2.279.442.26.717-.005.058-.008.116-.01.174-.01.162-.018.323-.048.48-.071.371-.301.643-.618.836-.329.2-.694.302-1.081.3-.455 0-.845-.162-1.132-.524a6.424 6.424 0 01-.426-.612c-.038-.06-.054-.134-.07-.207-.008-.033-.015-.066-.025-.098l-.02-.067-.015-.053.03-.182.005-.028.023-.036a1.02 1.02 0 00.05-.08c.044-.082.086-.166.128-.249.092-.183.184-.367.296-.538.128-.194.29-.375.466-.528.268-.232.582-.334.942-.205zM56.415 34.009c.014-.29-.161-.514-.333-.733a2.6 2.6 0 00-.994-.818c-.366-.168-.752-.237-1.1.016-.425.31-.805.654-.917 1.175a3.36 3.36 0 00-.097.81c.012.34.2.623.486.866.453.388.96.538 1.52.386.718-.195 1.148-.669 1.368-1.32a.168.168 0 01.045-.061.406.406 0 00.026-.028l.021-.141.011-.076a.284.284 0 00-.014-.024c-.011-.018-.023-.035-.022-.052z" fill="#701F7C"/></svg>