<?xml version="1.0" encoding="UTF-8"?>
<svg width="38px" height="38px" viewBox="0 0 38 38" version="1.1" xmlns="http://www.w3.org/2000/svg" xmlns:xlink="http://www.w3.org/1999/xlink">
    <!-- Generator: Sketch 52.6 (67491) - http://www.bohemiancoding.com/sketch -->
    <title>Facebook</title>
    <desc>Created with Sketch.</desc>
    <g id="Facebook" stroke="none" stroke-width="1" fill="none" fill-rule="evenodd">
        <g id="flogo-HexRBG-Wht-72" fill="#FFFFFF" fill-rule="nonzero">
            <path d="M35.8888889,0 L2.11111111,0 C0.945176639,-7.13928959e-17 1.42785792e-16,0.945176639 0,2.11111111 L0,35.8888889 C1.42785792e-16,37.0548234 0.945176639,38 2.11111111,38 L20.2983333,38 L20.2983333,23.3066667 L15.3636111,23.3066667 L15.3636111,17.5538889 L20.2983333,17.5538889 L20.2983333,13.3316667 C20.2983333,8.42333333 23.2961111,5.75277778 27.6872222,5.75277778 C29.164499,5.74846052 30.640924,5.8242198 32.11,5.97972222 L32.11,11.0833333 L29.07,11.0833333 C26.695,11.0833333 26.2358333,12.2127778 26.2358333,13.8752778 L26.2358333,17.5380556 L31.9305556,17.5380556 L31.1916667,23.2908333 L26.2358333,23.2908333 L26.2358333,38 L35.8888889,38 C37.0548234,38 38,37.0548234 38,35.8888889 L38,2.11111111 C38,0.945176639 37.0548234,7.13928959e-17 35.8888889,0 Z" id="Shape"></path>
        </g>
    </g>
</svg>