<svg id="Layer_2" data-name="Layer 2" xmlns="http://www.w3.org/2000/svg" viewBox="0 0 200 200"><defs><style>.cls-1{fill:#ffcd05;}</style></defs><title>Export</title><path class="cls-1" d="M100,142a42,42,0,1,1,42-42A42,42,0,0,1,100,142Zm0-82a40,40,0,1,0,40,40A40,40,0,0,0,100,60Z"/><path class="cls-1" d="M100,129.48a1,1,0,0,1-1-1V100a1,1,0,0,1,1-1h24.92a1,1,0,1,1,0,2H101v27.48A1,1,0,0,1,100,129.48Z"/><path class="cls-1" d="M100,159.45A59.45,59.45,0,0,1,58,58a1,1,0,0,1,1.42,1.42A57.45,57.45,0,1,0,100,42.55h-.77a1,1,0,0,1-1-1,1,1,0,0,1,1-1H100a59.45,59.45,0,0,1,0,118.9Z"/><path class="cls-1" d="M61.21,62.6l-6.49-6.49,8.87-2.38Zm-2.63-5.45,1.6,1.59.58-2.18Z"/></svg>