<svg id="Layer_2" data-name="Layer 2" xmlns="http://www.w3.org/2000/svg" viewBox="0 0 200 200"><defs><style>.cls-1{fill:#ffcd05;}.cls-2{fill:none;stroke:#ffcd05;stroke-miterlimit:10;stroke-width:2px;}</style></defs><title>Export</title><path class="cls-1" d="M80.43,78.41a9,9,0,0,1-6.39-3l1.4-1.79a7.67,7.67,0,0,0,5,2.63V69.49c-2.86-.78-5.8-1.74-5.8-5.19,0-2.89,2.44-4.93,5.8-5.18V56.56h1.72v2.59a8.47,8.47,0,0,1,5.55,2.57l-1.41,1.71a6.81,6.81,0,0,0-4.14-2.15v6.11c2.88.81,6,1.87,6,5.55,0,2.52-1.63,5.16-6,5.47V80.9H80.43Zm0-11.47V61.22c-2,.14-3.39,1.32-3.39,2.94S78.53,66.38,80.43,66.94Zm1.72,3v6.39c2.66-.28,3.56-1.88,3.56-3.22C85.71,71.28,84.11,70.53,82.15,69.94Z"/><path class="cls-1" d="M48.54,128.08H47v-1.46h1.23c0-.39-.06-.81-.06-1.23s0-.87.06-1.29H47v-1.49h1.54a9.28,9.28,0,0,1,9.25-6.9,8.29,8.29,0,0,1,7.09,3.71L63,120.51a6.29,6.29,0,0,0-5.16-2.72A7,7,0,0,0,51,122.61H59.5v1.49H50.7a9,9,0,0,0-.09,1.29,8.18,8.18,0,0,0,.09,1.23h8.8v1.46H51A7,7,0,0,0,57.82,133,6.37,6.37,0,0,0,63,130.27l2,1.06a8.39,8.39,0,0,1-7.12,3.73A9.26,9.26,0,0,1,48.54,128.08Z"/><path class="cls-1" d="M114.46,141.18v-3.42h-7v-1.48h7v-3h-7v-1.46h6l-6.37-9.34h2.72l5.81,8.7,5.8-8.7h2.72l-6.37,9.34h6v1.46h-7v3h7v1.48h-7v3.42Z"/><path class="cls-1" d="M137.18,78h2.94c-1-1.18-2.16-2.38-2.16-4.43,0-3.11,2.89-5.52,6.28-5.52a6.09,6.09,0,0,1,5.66,3.14L148,72.31a3.87,3.87,0,0,0-3.56-2.3c-2.13,0-4,1.35-4,3.59,0,2.05,1.3,3.11,2.25,4.4h4.2v1.52h-3.41a4,4,0,0,1,.19,1.2,4.47,4.47,0,0,1-2.13,3.7,4.8,4.8,0,0,1,1.46-.25c1.79,0,2.58,1.15,4.15,1.15a3.55,3.55,0,0,0,2.66-1.12l1,1.88a5.32,5.32,0,0,1-3.79,1.31c-2.52,0-2.91-1.29-5-1.29a8,8,0,0,0-3.31,1.13l-.82-1.77c2.39-1,3.7-2.58,3.7-4.26a3.72,3.72,0,0,0-.41-1.68h-4Z"/><ellipse class="cls-2" cx="81.08" cy="68.73" rx="26.81" ry="26.23"/><circle class="cls-2" cx="115.6" cy="131.83" r="25.67"/><circle class="cls-2" cx="144.02" cy="77.72" r="21.15"/><circle class="cls-2" cx="55.98" cy="125.39" r="21.15"/></svg>