<svg id="Layer_2" data-name="Layer 2" xmlns="http://www.w3.org/2000/svg" viewBox="0 0 200 200"><defs><style>.cls-1{fill:none;stroke:#ffcd05;stroke-linejoin:round;stroke-width:2px;}.cls-2{fill:#ffcd05;}</style></defs><title>Export</title><path class="cls-1" d="M72.13,107.67l8.65-10.83a26.3,26.3,0,0,0,19.36,8c8.64,0,13.56-4.93,13.56-10.84,0-6.45-4.81-10.83-13.12-10.83a20.94,20.94,0,0,0-15.32,5.91L74.43,86.23V44.32h50.11V58H90V75.83c3.51-3.5,9.41-6.12,16.09-6.12,12.36,0,23.41,8.86,23.41,23.63,0,15.53-11.59,25.27-29.21,25.27C87.56,118.61,78.37,114.45,72.13,107.67Z"/><path class="cls-2" d="M57.8,155.24V133.55H50.08v-2.71H68.59v2.71H60.84v21.69Z"/><path class="cls-2" d="M69.38,155.24V137.57h2.75v2.82A7.59,7.59,0,0,1,78,137.17V140a8.33,8.33,0,0,0-1.06-.08,6.44,6.44,0,0,0-4.82,2.82v12.51Z"/><path class="cls-2" d="M81,133.22a1.88,1.88,0,0,1,1.87-1.87,1.85,1.85,0,0,1,1.83,1.87,1.82,1.82,0,0,1-1.83,1.83A1.85,1.85,0,0,1,81,133.22Zm.48,22V137.57h2.74v17.67Z"/><path class="cls-2" d="M89.67,155.24v-24.4h2.75v24.4Z"/><path class="cls-2" d="M97.9,155.24v-24.4h2.74v24.4Z"/><path class="cls-2" d="M105.65,133.22a1.87,1.87,0,0,1,1.86-1.87,1.85,1.85,0,0,1,1.83,1.87,1.82,1.82,0,0,1-1.83,1.83A1.84,1.84,0,0,1,105.65,133.22Zm.47,22V137.57h2.74v17.67Z"/><path class="cls-2" d="M113.32,146.39c0-5.12,3.37-9.26,8.74-9.26s8.74,4.14,8.74,9.26-3.36,9.29-8.74,9.29S113.32,151.51,113.32,146.39Zm14.6,0c0-3.59-2.09-6.81-5.86-6.81s-5.85,3.22-5.85,6.81,2.08,6.83,5.85,6.83S127.92,150,127.92,146.39Z"/><path class="cls-2" d="M147.21,155.24V143.68c0-3.15-1.6-4.1-4-4.1a6.87,6.87,0,0,0-5.23,2.75v12.91h-2.74V137.57H138v2.56a8.64,8.64,0,0,1,6.33-3c3.65,0,5.59,1.87,5.59,5.71v12.4Z"/></svg>