<?xml version="1.0" encoding="UTF-8"?>
<svg width="49px" height="39px" viewBox="0 0 49 39" version="1.1" xmlns="http://www.w3.org/2000/svg" xmlns:xlink="http://www.w3.org/1999/xlink">
    <!-- Generator: Sketch 52.6 (67491) - http://www.bohemiancoding.com/sketch -->
    <title>Twitter</title>
    <desc>Created with Sketch.</desc>
    <g id="Twitter" stroke="none" stroke-width="1" fill="none" fill-rule="evenodd">
        <g id="Twitter_Logo_WhiteOnImage" fill="#FFFFFF" fill-rule="nonzero">
            <g id="Logo__x2014__FIXED">
                <path d="M15.1093385,38.9235294 C33.2367,38.9235294 43.1558077,23.9735294 43.1558077,11.0308824 C43.1558077,10.6102941 43.1558077,10.1897059 43.1365846,9.76911765 C45.0588923,8.39264706 46.7313,6.65294118 48.0576923,4.68382353 C46.2891692,5.46764706 44.3860846,5.98382353 42.3868846,6.23235294 C44.4245308,5.02794118 45.9816,3.09705882 46.7313,0.802941176 C44.8282154,1.93088235 42.7136769,2.73382353 40.4645769,3.17352941 C38.6576077,1.26176471 36.1009385,0.0764705882 33.2751462,0.0764705882 C27.8350154,0.0764705882 23.4137077,4.47352941 23.4137077,9.88382353 C23.4137077,10.6485294 23.5098231,11.3941176 23.6636077,12.1205882 C15.4745769,11.7191176 8.20825385,7.8 3.34481538,1.87352941 C2.499,3.32647059 2.01842308,5.00882353 2.01842308,6.80588235 C2.01842308,10.2088235 3.76772308,13.2102941 6.40128462,14.9691176 C4.78654615,14.9117647 3.26792308,14.4720588 1.94153077,13.7455882 C1.94153077,13.7838235 1.94153077,13.8220588 1.94153077,13.8794118 C1.94153077,18.6205882 5.34401538,22.5970588 9.84221538,23.4955882 C9.01562308,23.725 8.15058462,23.8397059 7.2471,23.8397059 C6.61273846,23.8397059 5.9976,23.7823529 5.40168462,23.6676471 C6.65118462,27.5676471 10.3035692,30.3970588 14.6095385,30.4735294 C11.2262769,33.1117647 6.97797692,34.6794118 2.36443846,34.6794118 C1.57629231,34.6794118 0.788146154,34.6411765 0.0192230769,34.5455882 C4.36363846,37.2985294 9.55386923,38.9235294 15.1093385,38.9235294" id="Shape"></path>
            </g>
        </g>
    </g>
</svg>